<?xml version="1.0" encoding="UTF-8"?><svg id="Capa_2" xmlns="http://www.w3.org/2000/svg" viewBox="0 0 424.48 105.82"><defs><style>.cls-1{fill:#fff;stroke-width:0px;}</style></defs><g id="Capa_1-2"><path class="cls-1" d="M12.56,14.63v14.11h11.93v-14.11c0-1.2.59-1.81,1.78-1.81h8.95c1.19,0,1.78.6,1.78,1.81v42.18c0,1.2-.59,1.81-1.78,1.81h-8.95c-1.19,0-1.78-.6-1.78-1.81v-16.72h-11.93v16.72c0,1.2-.6,1.81-1.81,1.81H1.81c-1.2,0-1.81-.6-1.81-1.81V14.63c0-1.2.6-1.81,1.81-1.81h8.95c1.2,0,1.81.6,1.81,1.81ZM11.84,14.63c0-.73-.36-1.09-1.09-1.09H1.81c-.73,0-1.09.36-1.09,1.09v42.18c0,.73.36,1.09,1.09,1.09h8.95c.73,0,1.09-.36,1.09-1.09v-17.06c0-.25.11-.37.34-.37h12.65c.25,0,.37.12.37.37v17.06c0,.73.35,1.09,1.06,1.09h8.95c.71,0,1.06-.36,1.06-1.09V14.63c0-.73-.35-1.09-1.06-1.09h-8.95c-.71,0-1.06.36-1.06,1.09v14.48c0,.23-.12.34-.37.34h-12.65c-.23,0-.34-.11-.34-.34v-14.48ZM3.24,15.69h6.08c.25,0,.37.12.37.37v14.48c0,.71.35,1.06,1.06,1.06h15.51c.73,0,1.09-.35,1.09-1.06v-14.48c0-.25.11-.37.34-.37h6.08c.23,0,.34.12.34.37v39.31c0,.23-.11.34-.34.34h-6.08c-.23,0-.34-.11-.34-.34v-17.06c0-.73-.36-1.09-1.09-1.09h-15.51c-.71,0-1.06.36-1.06,1.09v17.06c0,.23-.12.34-.37.34H3.24c-.25,0-.37-.11-.37-.34V16.06c0-.25.12-.37.37-.37Z"/><path class="cls-1" d="M89.34,56.12c.13.33.2.61.2.86,0,1.09-.61,1.64-1.83,1.64h-9.2c-1.07,0-2.12-1.32-3.15-3.96l-1.66-4.76h-16.54c-.36,1.05-.93,2.62-1.69,4.7-1.07,2.68-2.16,4.01-3.27,4.01h-9.18c-1.22,0-1.83-.54-1.83-1.63,0-.31.06-.59.17-.86L59.24,13.94c.32-.75.88-1.12,1.66-1.12h8.95c.78,0,1.34.37,1.66,1.12l17.84,42.18ZM88.68,56.38l-17.84-42.18c-.19-.44-.53-.66-1-.66h-8.93c-.48,0-.81.22-1,.66l-17.89,42.18c-.08.17-.12.37-.12.6,0,.61.37.92,1.12.92h9.18c.46,0,.78-.22.97-.66l3.41-7.83c.06-.15.17-.23.34-.23h17.03c.15,0,.26.08.32.23l3.27,7.8c.19.46.52.69.97.69h9.2c.75,0,1.12-.31,1.12-.92,0-.17-.05-.37-.15-.6ZM85.87,55.23c.13.33.02.49-.34.49h-6.05c-.17,0-.29-.07-.34-.2l-3.24-7.8c-.19-.46-.53-.69-1-.69h-18.93c-.46,0-.78.22-.98.66l-3.41,7.83c-.08.14-.19.2-.34.2h-6.07c-.34,0-.45-.16-.31-.49L61.5,15.92c.06-.15.17-.23.34-.23h7.05c.15,0,.26.08.32.23l16.66,39.31ZM73.21,39.61l-6.12-14.48c-.38-.9-.93-1.35-1.65-1.35s-1.26.44-1.62,1.32l-6.2,14.48c-.14.31-.21.6-.21.89,0,1.07.61,1.6,1.83,1.6h12.33c1.24,0,1.86-.53,1.86-1.6,0-.25-.07-.53-.22-.86ZM69.73,38.71c.13.33.03.49-.32.49h-8c-.34,0-.45-.16-.32-.49l3.99-9.38c.21-.52.43-.52.66,0l3.99,9.38ZM68.87,38.48l-3.45-8.1-3.48,8.1h6.93Z"/><path class="cls-1" d="M125.8,28.73c-.33-.23-1.28-.92-2.87-2.06-3.23-2.35-6.61-3.53-10.15-3.53-3.84,0-7.08,1.12-9.72,3.35-2.83,2.35-4.24,5.41-4.24,9.18,0,3.98,1.39,7.12,4.16,9.43,2.6,2.16,5.93,3.24,9.98,3.24,2.58,0,4.9-.48,6.97-1.44,1.76-.83,3.72-2.21,5.88-4.15.27-.25.61-.37,1.03-.37,1.36,0,3.01.92,4.95,2.76,1.94,1.84,2.91,3.43,2.91,4.77,0,.5-.17.9-.52,1.21-3.4,3.01-6.67,5.16-9.81,6.46-3.36,1.4-7.22,2.1-11.56,2.1-7.46,0-13.64-2.09-18.55-6.28-5.22-4.45-7.83-10.37-7.83-17.75s2.72-13.07,8.17-17.58c5.08-4.21,11.2-6.31,18.35-6.31,8.64,0,15.81,3.02,21.51,9.06.32.34.49.72.49,1.12,0,.86-.62,1.82-1.86,2.87-.94.73-2.58,2.05-4.93,3.96-.63.52-1.42.51-2.35-.03ZM126.19,28.12c.65.36,1.16.4,1.52.12.76-.6,1.91-1.49,3.43-2.68,1.62-1.28,2.6-2.29,2.95-3.04.21-.46.16-.86-.14-1.2-5.54-5.89-12.54-8.84-20.99-8.84-7,0-12.96,2.05-17.89,6.14-5.28,4.38-7.91,10.05-7.91,17.03s2.52,12.93,7.57,17.23c4.76,4.05,10.79,6.08,18.09,6.08,4.24,0,8.01-.68,11.3-2.04,3.06-1.28,6.25-3.39,9.58-6.34.19-.17.29-.4.29-.69,0-1.05-.88-2.43-2.64-4.13-1.85-1.78-3.35-2.67-4.47-2.67-.25,0-.45.07-.6.2-2.24,2.01-4.25,3.43-6.05,4.27-2.14.99-4.56,1.49-7.25,1.49-4.24,0-7.73-1.16-10.47-3.47-2.92-2.45-4.39-5.75-4.39-9.92s1.47-7.22,4.42-9.72c2.79-2.35,6.22-3.53,10.27-3.53,2.35,0,4.54.45,6.57,1.35,1.53.69,3.38,1.85,5.57,3.48.52.4.94.69,1.26.86ZM131.31,22.25l-4.07,3.5c-.15.13-.31.13-.46,0-4.15-3.65-8.81-5.48-13.99-5.48-4.66,0-8.59,1.39-11.79,4.16-3.36,2.91-5.05,6.65-5.05,11.24s1.66,8.6,4.99,11.47c3.17,2.71,7.18,4.07,12.01,4.07s9.46-1.82,13.76-5.45c.15-.13.32-.12.49.03l3.87,3.67c.21.19.21.37,0,.54-2.92,2.41-5.75,4.13-8.49,5.16-2.81,1.07-6.07,1.61-9.78,1.61-6.69,0-12.2-1.81-16.52-5.42-4.66-3.9-7-9.14-7-15.71s2.45-11.56,7.34-15.54c4.51-3.65,9.95-5.48,16.32-5.48,7.3,0,13.42,2.36,18.35,7.08.19.19.19.37,0,.54Z"/><path class="cls-1" d="M151.69,14.63v9.72l9.43-10.9c.36-.42.81-.63,1.35-.63h10.64c1.3,0,1.95.52,1.95,1.57,0,.48-.2.94-.61,1.4l-15.24,17.7,16.92,22.22c.33.42.49.86.49,1.32,0,1.05-.64,1.58-1.92,1.58h-10.47c-.59,0-1.07-.24-1.43-.72l-11.1-14.51v13.42c0,1.2-.6,1.81-1.81,1.81h-8.92c-1.2,0-1.81-.6-1.81-1.81V14.63c0-1.2.6-1.81,1.81-1.81h8.92c1.2,0,1.81.6,1.81,1.81ZM150.98,14.63c0-.73-.36-1.09-1.09-1.09h-8.92c-.73,0-1.09.36-1.09,1.09v42.18c0,.73.36,1.09,1.09,1.09h8.92c.73,0,1.09-.36,1.09-1.09v-14.48c0-.23.08-.36.24-.4.14-.06.28,0,.42.15l11.75,15.37c.21.3.5.45.86.45h10.45c.8,0,1.2-.28,1.2-.85,0-.28-.12-.58-.37-.88l-17.08-22.43c-.11-.16-.1-.31.01-.47l15.45-17.95c.29-.32.43-.63.43-.92,0-.57-.41-.86-1.23-.86h-10.64c-.33,0-.59.12-.8.38l-10.06,11.62c-.14.15-.28.2-.44.16-.14-.06-.2-.19-.2-.4v-10.67ZM142.4,15.69h6.05c.25,0,.37.12.37.37v13.08c0,.84.29,1.26.86,1.26.38,0,.73-.18,1.03-.54l12.16-14.02c.09-.08.18-.12.26-.14h6.84c.52,0,.6.2.26.59l-14.16,16.46c-.37.44-.37.89,0,1.35l16.03,21.05c.29.39.19.58-.29.58h-6.88c-.11-.02-.21-.06-.29-.11l-13.88-18.18c-.33-.42-.67-.63-1.03-.63-.59,0-.89.43-.89,1.29v17.29c0,.23-.12.34-.37.34h-6.05c-.25,0-.37-.11-.37-.34V16.06c0-.25.12-.37.37-.37Z"/><path class="cls-1" d="M276.08,14.63v7.91c0,1.19-.59,1.78-1.78,1.78h-6.68v32.49c0,1.2-.59,1.81-1.78,1.81h-8.97c-1.19,0-1.78-.6-1.78-1.81V24.32h-6.45c-1.18,0-1.78-.59-1.78-1.78v-7.91c0-1.2.59-1.81,1.78-1.81h25.66c1.19,0,1.78.6,1.78,1.81ZM275.36,14.63c0-.73-.35-1.09-1.06-1.09h-25.66c-.71,0-1.06.36-1.06,1.09v7.91c0,.71.35,1.06,1.06,1.06h6.8c.25,0,.37.12.37.37v32.83c0,.73.35,1.09,1.06,1.09h8.97c.71,0,1.06-.36,1.06-1.09V23.97c0-.25.12-.37.37-.37h7.03c.71,0,1.06-.35,1.06-1.06v-7.91ZM250.07,15.69h22.8c.23,0,.34.12.34.37v5.05c0,.23-.11.34-.34.34h-7.03c-.73,0-1.09.36-1.09,1.09v32.83c0,.23-.11.34-.34.34h-6.11c-.23,0-.34-.11-.34-.34V22.54c0-.73-.36-1.09-1.09-1.09h-6.8c-.23,0-.34-.11-.34-.34v-5.05c0-.25.11-.37.34-.37Z"/><path class="cls-1" d="M293.07,14.63v14.11h11.93v-14.11c0-1.2.59-1.81,1.78-1.81h8.95c1.19,0,1.78.6,1.78,1.81v42.18c0,1.2-.59,1.81-1.78,1.81h-8.95c-1.19,0-1.78-.6-1.78-1.81v-16.72h-11.93v16.72c0,1.2-.6,1.81-1.81,1.81h-8.95c-1.21,0-1.81-.6-1.81-1.81V14.63c0-1.2.6-1.81,1.81-1.81h8.95c1.2,0,1.81.6,1.81,1.81ZM292.35,14.63c0-.73-.36-1.09-1.09-1.09h-8.95c-.73,0-1.09.36-1.09,1.09v42.18c0,.73.36,1.09,1.09,1.09h8.95c.73,0,1.09-.36,1.09-1.09v-17.06c0-.25.12-.37.34-.37h12.64c.25,0,.37.12.37.37v17.06c0,.73.35,1.09,1.06,1.09h8.95c.71,0,1.06-.36,1.06-1.09V14.63c0-.73-.35-1.09-1.06-1.09h-8.95c-.71,0-1.06.36-1.06,1.09v14.48c0,.23-.12.34-.37.34h-12.64c-.23,0-.34-.11-.34-.34v-14.48ZM283.75,15.69h6.08c.25,0,.37.12.37.37v14.48c0,.71.35,1.06,1.06,1.06h15.51c.73,0,1.09-.35,1.09-1.06v-14.48c0-.25.12-.37.34-.37h6.08c.23,0,.34.12.34.37v39.31c0,.23-.12.34-.34.34h-6.08c-.23,0-.34-.11-.34-.34v-17.06c0-.73-.36-1.09-1.09-1.09h-15.51c-.71,0-1.06.36-1.06,1.09v17.06c0,.23-.12.34-.37.34h-6.08c-.25,0-.37-.11-.37-.34V16.06c0-.25.12-.37.37-.37Z"/><path class="cls-1" d="M395.38,13.6l16.67,23.24V14.63c0-1.21.6-1.81,1.81-1.81h8.83c1.18,0,1.78.6,1.78,1.81v42.18c0,1.2-.59,1.81-1.78,1.81h-8.49c-.61,0-1.1-.26-1.46-.77l-16.63-23.14v22.11c0,1.2-.59,1.81-1.78,1.81h-8.83c-1.2,0-1.81-.6-1.81-1.81V14.63c0-1.2.6-1.81,1.8-1.81h8.46c.59,0,1.07.26,1.43.78ZM394.82,13.99c-.21-.3-.5-.45-.86-.45h-8.47c-.73,0-1.09.36-1.09,1.09v42.18c0,.73.36,1.09,1.09,1.09h8.83c.71,0,1.06-.36,1.06-1.09v-23.23c0-.21.08-.34.23-.4.15-.04.29.03.43.21l17.26,24.06c.21.3.51.45.89.45h8.5c.71,0,1.06-.36,1.06-1.09V14.63c0-.73-.35-1.09-1.06-1.09h-8.83c-.73,0-1.09.36-1.09,1.09v23.28c0,.23-.08.36-.23.4-.15.06-.28,0-.4-.18l-17.32-24.14ZM386.93,15.69h6.29c.15.06.25.11.29.16l19.46,27.17c.31.44.66.66,1.06.66.59,0,.89-.43.89-1.29v-26.32c0-.25.12-.37.37-.37h5.96c.23,0,.34.12.34.37v39.31c0,.23-.11.34-.34.34h-6.31c-.15-.04-.26-.09-.32-.14l-19.45-27.06c-.32-.44-.67-.66-1.03-.66-.61,0-.92.43-.92,1.29v26.24c0,.23-.11.34-.34.34h-5.96c-.25,0-.37-.11-.37-.34V16.06c0-.25.12-.37.37-.37Z"/><path class="cls-1" d="M325.77,99.61l11.83-15.55c.54-.7.95-1.41,1.25-2.15.29-.73.44-1.42.44-2.05v-.05c0-.93-.3-1.65-.9-2.16-.6-.51-1.45-.76-2.56-.76s-1.94.35-2.61,1.06c-.66.7-1.07,1.7-1.21,3v.02h-6.66v-.02c.14-2.15.66-4,1.55-5.55.89-1.55,2.1-2.73,3.62-3.54,1.52-.81,3.27-1.22,5.26-1.22,2.15,0,3.99.35,5.51,1.06,1.52.7,2.69,1.73,3.49,3.07.8,1.34,1.2,2.96,1.2,4.86v.02c0,1.56-.27,3.12-.82,4.66-.55,1.54-1.31,2.94-2.29,4.18l-8.49,10.72h11.78v6.26h-20.39v-5.86Z"/><path class="cls-1" d="M354.01,103.22c-1.75-1.73-2.63-4.13-2.63-7.2v-15.67c0-3.1.88-5.5,2.64-7.22,1.76-1.71,4.32-2.57,7.67-2.57s5.93.85,7.68,2.56,2.63,4.12,2.63,7.23v15.67c0,3.1-.88,5.5-2.64,7.22-1.76,1.72-4.32,2.57-7.67,2.57s-5.93-.87-7.68-2.6ZM364.59,98.22c.62-.89.92-2.18.92-3.85v-12.35c0-1.67-.31-2.96-.92-3.85-.62-.89-1.58-1.34-2.89-1.34s-2.28.45-2.89,1.34c-.62.89-.92,2.18-.92,3.85v12.35c0,1.68.31,2.96.92,3.85.62.89,1.58,1.34,2.89,1.34s2.28-.45,2.89-1.34Z"/><path class="cls-1" d="M377.65,99.61l11.83-15.55c.54-.7.95-1.41,1.25-2.15.29-.73.44-1.42.44-2.05v-.05c0-.93-.3-1.65-.9-2.16-.6-.51-1.45-.76-2.56-.76s-1.94.35-2.61,1.06c-.66.7-1.07,1.7-1.21,3v.02h-6.66v-.02c.14-2.15.66-4,1.55-5.55.89-1.55,2.1-2.73,3.62-3.54,1.52-.81,3.27-1.22,5.26-1.22,2.15,0,3.99.35,5.51,1.06,1.52.7,2.69,1.73,3.49,3.07.8,1.34,1.2,2.96,1.2,4.86v.02c0,1.56-.27,3.12-.82,4.66-.55,1.54-1.31,2.94-2.29,4.18l-8.49,10.72h11.78v6.26h-20.39v-5.86Z"/><path class="cls-1" d="M401.36,94.2l10.62-23.19h7.35l-10.34,22.9h15.48v6.26h-23.12v-5.97ZM415.28,85.19h6.5v20.29h-6.5v-20.29Z"/><path class="cls-1" d="M214.62,0h-6.6c-14.9,0-24.2,10-24.2,26.1v35.2c0,6.9,3.3,9.8,8.1,9.8s8.1-2.9,8.1-9.8v-9.7h22.6v9.7c0,6.9,3.4,9.8,8.1,9.8s8.1-2.9,8.1-9.8V26.1c0-16.1-9.3-26.1-24.2-26.1ZM231.92,62.8c0,.9-.4,1.5-1.2,1.5s-1.1-.6-1.1-1.5v-16.7h-36.6v16.7c0,.9-.3,1.5-1.1,1.5s-1.2-.6-1.2-1.5V24.6c0-11.7,7-18.4,20.6-18.4s20.6,6.7,20.6,18.4v38.2Z"/><path class="cls-1" d="M211.32,8.5c-12.5.1-18.3,5.9-18.3,16v19.3h36.6v-19.3c0-10.1-5.8-15.9-18.3-16ZM205.21,24.71l-6.07,2.91,6.07,2.91v1.69l-7.94-3.77v-1.66l7.94-3.77v1.69ZM208.39,38h-1.74l7.07-20.77h1.74l-7.07,20.77ZM224.84,28.45l-7.94,3.77v-1.69l6.07-2.91-6.07-2.91v-1.69l7.94,3.77v1.66Z"/><path class="cls-1" d="M377.63,31.83c0-1.1-.58-1.71-1.66-1.83-1.4-.16-2.8-.35-4.2-.5-.29-.03-.43-.13-.51-.42-.44-1.58-1.06-3.1-1.88-4.53-.16-.28-.11-.47.08-.71.9-1.11,1.77-2.24,2.65-3.36.62-.8.58-1.62-.14-2.35-1.58-1.6-3.17-3.19-4.77-4.77-.71-.71-1.54-.75-2.35-.12-1.13.88-2.25,1.76-3.36,2.65-.24.2-.43.23-.71.07-1.42-.8-2.91-1.42-4.48-1.85-.31-.09-.42-.23-.45-.55-.14-1.29-.36-2.58-.45-3.88-.07-.9-.4-1.56-1.22-1.96h-7.93c-.82.4-1.15,1.06-1.22,1.96-.1,1.3-.32,2.58-.46,3.87-.03.31-.13.46-.45.55-1.57.43-3.07,1.05-4.48,1.85-.3.17-.5.12-.75-.09-1.1-.88-2.21-1.75-3.32-2.61-.83-.65-1.64-.61-2.39.13-1.58,1.57-3.16,3.15-4.73,4.73-.74.74-.78,1.55-.13,2.39.86,1.11,1.73,2.22,2.61,3.32.21.26.26.45.09.75-.81,1.41-1.42,2.91-1.85,4.48-.09.31-.24.42-.55.45-1.29.14-2.58.36-3.87.45-.91.07-1.56.41-1.96,1.22v7.93c.4.82,1.05,1.15,1.96,1.22,1.3.1,2.58.32,3.88.46.31.03.46.13.55.45.43,1.57,1.05,3.07,1.85,4.48.15.27.14.46-.06.71-.9,1.11-1.77,2.24-2.65,3.36-.64.82-.59,1.64.15,2.39,1.56,1.57,3.12,3.14,4.69,4.7.77.77,1.57.82,2.43.15,1.11-.87,2.22-1.73,3.32-2.62.27-.22.47-.23.76-.07,1.4.79,2.88,1.41,4.44,1.83.33.09.45.25.48.58.15,1.38.33,2.76.49,4.14.12,1.09.74,1.67,1.83,1.67,2.21,0,4.43,0,6.64,0,1.09,0,1.69-.58,1.82-1.68.16-1.4.35-2.8.5-4.2.03-.3.16-.42.43-.5,1.59-.44,3.1-1.06,4.53-1.87.26-.15.44-.11.66.07,1.11.89,2.24,1.77,3.36,2.65.83.65,1.65.6,2.39-.13,1.58-1.57,3.16-3.15,4.73-4.74.74-.74.78-1.55.13-2.39-.87-1.11-1.73-2.22-2.62-3.32-.21-.26-.26-.45-.09-.75.81-1.41,1.42-2.91,1.86-4.48.08-.27.19-.4.5-.43,1.4-.15,2.8-.34,4.2-.5,1.12-.13,1.68-.73,1.68-1.87,0-2.2,0-4.39,0-6.59ZM350.21,54.08c-10.45,0-18.95-8.5-18.95-18.95s8.5-18.95,18.95-18.95,18.95,8.5,18.95,18.95-8.5,18.95-18.95,18.95Z"/><path class="cls-1" d="M350.21,17.69c-9.62,0-17.45,7.83-17.45,17.45s7.83,17.45,17.45,17.45,17.45-7.83,17.45-17.45-7.83-17.45-17.45-17.45ZM350.14,48.84c-7.6-.08-13.74-6.3-13.63-13.81.11-7.6,6.27-13.68,13.78-13.6,7.6.08,13.72,6.28,13.63,13.81-.09,7.58-6.28,13.69-13.78,13.61Z"/></g></svg>